<?xml version="1.0" standalone="no"?>
<!DOCTYPE svg PUBLIC "-//W3C//DTD SVG 20010904//EN"
 "http://www.w3.org/TR/2001/REC-SVG-20010904/DTD/svg10.dtd">
<svg version="1.0" xmlns="http://www.w3.org/2000/svg"
 width="1024.000000pt" height="1024.000000pt" viewBox="0 0 1024.000000 1024.000000"
 preserveAspectRatio="xMidYMid meet">
<metadata>
Created by potrace 1.14, written by Peter Selinger 2001-2017
</metadata>
<g transform="translate(0.000000,1024.000000) scale(0.100000,-0.100000)"
fill="#000000" stroke="none">
<path d="M4968 9606 c-341 -61 -635 -303 -733 -603 l-17 -53 -329 0 -329 0 0
-160 0 -160 -1026 0 -1027 0 7 -957 c3 -527 8 -1910 11 -3073 3 -1163 8 -2535
11 -3047 l6 -933 3589 0 3589 0 0 4000 0 4000 -792 3 c-436 1 -892 2 -1013 3
-121 0 -226 1 -232 2 -10 2 -13 42 -13 162 l0 160 -329 0 -328 0 -27 74 c-76
207 -237 383 -449 490 -172 86 -396 122 -569 92z m318 -289 c92 -26 189 -78
267 -142 54 -44 157 -182 157 -211 0 -12 -89 -14 -600 -14 l-600 0 11 27 c16
44 95 148 144 191 86 75 213 139 330 165 11 3 63 5 116 6 74 1 116 -4 175 -22z
m1102 -819 l-3 -172 -500 1 c-275 1 -850 2 -1277 3 l-778 0 0 170 0 170 1280
0 1280 0 -2 -172z m-2837 -300 l-3 -148 1561 0 1561 0 0 150 0 150 885 0 885
0 0 -3725 0 -3725 -3313 0 -3314 0 -6 1728 c-4 950 -10 2626 -14 3725 l-6
1997 884 -2 884 -3 -4 -147z"/>
<path d="M3910 7394 c-143 -28 -269 -103 -369 -220 -215 -251 -198 -567 44
-809 167 -167 423 -213 620 -112 60 30 85 69 85 131 0 36 -6 52 -31 81 -46 52
-92 61 -171 33 -124 -43 -227 -18 -318 78 -135 143 -133 303 5 448 86 90 204
120 333 86 46 -12 59 -12 95 0 61 22 90 69 85 138 -6 65 -31 94 -107 123 -55
21 -213 34 -271 23z"/>
<path d="M2360 7373 c-54 -38 -80 -94 -66 -146 3 -13 118 -187 256 -388 l250
-364 -203 -5 c-179 -4 -206 -7 -236 -25 -92 -54 -90 -179 2 -235 30 -19 53
-20 388 -20 354 0 356 0 390 23 45 30 71 82 66 129 -5 35 -46 98 -444 675 -35
50 -63 94 -63 97 0 3 92 6 204 6 194 0 205 1 237 23 79 52 87 141 19 209 l-38
38 -369 0 c-332 0 -371 -2 -393 -17z"/>
<path d="M4950 7374 c-223 -60 -393 -235 -446 -459 -34 -146 2 -325 92 -458
120 -175 330 -278 543 -264 321 21 570 281 571 598 0 277 -186 511 -465 584
-74 19 -222 19 -295 -1z m247 -269 c69 -21 140 -71 180 -129 111 -161 53 -382
-124 -472 -52 -26 -68 -29 -153 -29 -84 0 -101 3 -148 28 -65 34 -122 92 -153
155 -19 39 -24 63 -24 137 0 78 4 97 27 140 77 145 241 216 395 170z"/>
<path d="M5981 7372 c-19 -10 -43 -34 -53 -53 -17 -31 -18 -68 -18 -529 0
-461 1 -498 18 -529 34 -63 119 -89 182 -56 46 24 71 68 78 138 l7 63 230
-108 c127 -59 243 -108 258 -108 43 0 97 29 118 64 25 41 24 100 -1 142 -21
34 -22 34 -312 171 -65 31 -118 59 -118 62 0 3 90 52 199 109 128 65 209 113
225 133 26 31 26 31 26 226 0 179 -2 198 -20 228 -39 63 -50 65 -437 65 -318
0 -351 -2 -382 -18z m567 -293 l3 -37 -175 -91 c-97 -50 -178 -91 -181 -91 -3
0 -5 59 -5 130 l0 130 178 -2 177 -3 3 -36z"/>
<path d="M7110 7383 c-8 -3 -26 -15 -38 -27 -53 -47 -52 -39 -52 -563 0 -544
-1 -533 69 -580 34 -23 37 -23 388 -23 284 0 359 3 381 14 88 45 103 153 32
221 l-31 30 -277 5 -277 5 -3 93 -3 92 83 0 c108 0 149 12 187 56 25 28 31 44
31 80 0 104 -57 144 -205 144 l-95 0 0 95 0 95 268 0 c247 0 269 2 299 20 45
27 66 64 66 115 0 51 -21 88 -66 115 -30 19 -52 20 -387 19 -195 0 -362 -3
-370 -6z"/>
<path d="M2290 3545 l0 -1995 2818 0 2819 0 6 1487 c4 817 7 1715 7 1995 l0
508 -2825 0 -2825 0 0 -1995z m948 1243 l-3 -473 -332 -3 -333 -2 0 475 0 475
335 0 335 0 -2 -472z m2532 -3 l0 -475 -1130 0 -1130 0 0 475 0 475 1130 0
1130 0 0 -475z m940 0 l0 -475 -335 0 -335 0 0 475 0 475 335 0 335 0 0 -475z
m950 0 l0 -475 -335 0 -335 0 0 475 0 475 335 0 335 0 0 -475z m-4422 -1242
l-3 -488 -330 0 -330 0 -3 488 -2 487 335 0 335 0 -2 -487z m2530 0 l-3 -488
-1125 0 -1125 0 -3 488 -2 487 1130 0 1130 0 -2 -487z m944 10 c2 -263 1 -484
-1 -491 -2 -10 -74 -12 -335 -10 l-331 3 -3 488 -2 487 334 0 335 0 3 -477z
m946 -10 l-3 -488 -332 -3 -333 -2 0 490 0 490 335 0 335 0 -2 -487z m-4423
-1243 l0 -475 -330 0 -330 0 -3 478 -2 477 332 -2 333 -3 0 -475z m2533 3 l-3
-478 -1105 -3 c-608 -1 -1115 0 -1127 3 l-23 5 0 469 c0 257 3 471 7 474 3 4
512 7 1130 7 l1123 0 -2 -477z m942 -3 l0 -480 -332 2 -333 3 -3 465 c-1 256
0 471 3 478 3 9 80 12 335 12 l330 0 0 -480z m948 3 l-3 -478 -330 0 -330 0
-3 478 -2 477 335 0 335 0 -2 -477z"/>
</g>
</svg>
